<svg xmlns="http://www.w3.org/2000/svg" xmlns:xlink="http://www.w3.org/1999/xlink" width="480" zoomAndPan="magnify" viewBox="0 0 360 143.999998" height="192" preserveAspectRatio="xMidYMid meet" version="1.0"><defs><g/></defs><g fill="#38b6ff" fill-opacity="0.4"><g transform="translate(34.416981, 125.637665)"><g><path d="M 28.09375 -33.984375 C 23.730469 -36.050781 19.441406 -36.050781 19.058594 -36.050781 C 15.15625 -36.050781 11.40625 -38.347656 11.40625 -42.789062 C 11.40625 -47.6875 14.851562 -50.214844 19.058594 -50.214844 C 23.039062 -50.214844 26.40625 -48.148438 26.5625 -43.785156 C 26.5625 -43.554688 26.945312 -43.171875 27.402344 -43.171875 L 36.972656 -43.171875 C 37.507812 -43.171875 37.890625 -43.554688 37.8125 -43.785156 C 37.660156 -54.195312 29.546875 -61.234375 19.058594 -61.234375 C 9.261719 -61.234375 0 -54.269531 0 -42.789062 C 0 -35.671875 3.597656 -30.234375 9.949219 -27.328125 C 14.390625 -25.261719 18.523438 -25.261719 19.058594 -25.261719 C 22.503906 -25.105469 26.714844 -22.351562 26.714844 -17.835938 C 26.714844 -13.777344 23.117188 -11.023438 19.058594 -11.023438 C 19.058594 -11.023438 19.058594 -11.023438 18.984375 -11.023438 L 18.984375 0 C 19.058594 0 19.058594 0 19.058594 0 C 28.859375 0 38.042969 -6.351562 38.042969 -17.835938 C 38.042969 -25.03125 34.523438 -31 28.09375 -33.984375 Z M 28.09375 -33.984375 "/></g></g></g><g fill="#38b6ff" fill-opacity="0.4"><g transform="translate(74.368372, 125.637665)"><g><path d="M 29.085938 -11.40625 L 11.710938 -11.40625 L 11.710938 -25.183594 L 35.746094 -25.183594 C 36.207031 -25.183594 36.589844 -25.566406 36.589844 -25.871094 L 36.589844 -35.59375 C 36.589844 -35.976562 36.207031 -36.28125 35.746094 -36.28125 L 11.710938 -36.28125 L 11.710938 -50.136719 L 29.085938 -50.136719 L 29.085938 -61.234375 L 0.84375 -61.234375 C 0.382812 -61.234375 0 -60.851562 0 -60.546875 L 0 -0.6875 C 0 -0.382812 0.382812 0 0.84375 0 L 29.085938 0 Z M 29.085938 -11.40625 "/></g></g></g><g fill="#38b6ff" fill-opacity="0.4"><g transform="translate(112.789058, 125.637665)"><g><path d="M 41.792969 -0.996094 C 37.964844 -9.492188 33.832031 -17.910156 30.003906 -26.5625 C 36.128906 -28.78125 41.257812 -33.679688 41.257812 -43.019531 C 41.257812 -61.082031 24.035156 -61.234375 20.589844 -61.234375 L 0.765625 -61.234375 C 0.382812 -61.234375 0 -60.851562 0 -60.546875 L 0 -50.136719 L 20.589844 -50.136719 C 22.425781 -50.136719 29.621094 -49.753906 29.621094 -43.019531 C 29.621094 -36.28125 23.117188 -35.976562 20.589844 -35.976562 L 0 -35.976562 L 0 -0.6875 C 0 -0.382812 0.382812 0 0.765625 0 L 10.792969 0 C 11.253906 0 11.636719 -0.382812 11.636719 -0.6875 L 11.636719 -24.722656 L 18.21875 -24.722656 L 29.394531 -0.460938 C 29.46875 -0.230469 29.929688 0 30.160156 0 L 41.105469 0 C 41.71875 0 42.023438 -0.460938 41.792969 -0.996094 Z M 41.792969 -0.996094 "/></g></g></g><g fill="#38b6ff" fill-opacity="0.4"><g transform="translate(156.796807, 125.637665)"><g><path d="M 46.691406 -49.984375 L 46.691406 -60.546875 C 46.691406 -60.851562 46.386719 -61.234375 45.851562 -61.234375 L 35.898438 -61.234375 C 20.667969 -61.234375 0 -56.796875 0 -30.617188 C 0 -3.445312 20.898438 0 35.898438 0 L 45.851562 0 C 46.386719 0 46.691406 -0.382812 46.691406 -0.6875 L 46.691406 -38.195312 L 23.191406 -38.195312 L 23.191406 -26.484375 L 34.980469 -26.484375 L 34.980469 -11.175781 C 21.664062 -10.488281 11.789062 -16.074219 11.789062 -30.617188 C 11.789062 -49.523438 27.554688 -50.289062 34.980469 -49.984375 Z M 46.691406 -49.984375 "/></g></g></g><g fill="#38b6ff" fill-opacity="0.4"><g transform="translate(205.855886, 125.637665)"><g><path d="M 24.953125 -10.488281 L 18.828125 -10.488281 L 18.828125 -61.234375 L 7.117188 -61.234375 L 7.117188 -10.488281 L 0.84375 -10.488281 C 0.382812 -10.488281 0 -10.179688 0 -9.796875 L 0 -0.6875 C 0 -0.382812 0.382812 0 0.84375 0 L 24.953125 0 C 25.488281 0 25.796875 -0.382812 25.796875 -0.6875 L 25.796875 -9.796875 C 25.796875 -10.179688 25.488281 -10.488281 24.953125 -10.488281 Z M 24.953125 -10.488281 "/></g></g></g><g fill="#38b6ff" fill-opacity="0.4"><g transform="translate(232.949349, 125.637665)"><g><path d="M 35.210938 -30.464844 C 35.210938 -33.679688 32.683594 -36.28125 29.46875 -36.28125 C 26.253906 -36.28125 23.730469 -33.679688 23.730469 -30.464844 C 23.730469 -27.328125 26.253906 -24.722656 29.46875 -24.722656 C 32.683594 -24.722656 35.210938 -27.328125 35.210938 -30.464844 Z M 58.941406 -30.695312 C 58.941406 -45.925781 49.066406 -61.234375 29.546875 -61.234375 C 9.722656 -61.234375 0 -45.925781 0 -30.695312 C 0 -15.386719 9.722656 0 29.546875 0 C 49.066406 0 58.941406 -15.386719 58.941406 -30.695312 Z M 47.457031 -30.464844 C 47.457031 -20.589844 41.410156 -10.714844 29.546875 -10.714844 C 17.527344 -10.714844 11.558594 -20.589844 11.558594 -30.464844 C 11.558594 -40.492188 17.527344 -50.441406 29.546875 -50.441406 C 41.410156 -50.441406 47.457031 -40.492188 47.457031 -30.464844 Z M 47.457031 -30.464844 "/></g></g></g><g fill="#38b6ff" fill-opacity="1"><g transform="translate(31.034038, 122.254723)"><g><path d="M 28.09375 -33.984375 C 23.730469 -36.050781 19.441406 -36.050781 19.058594 -36.050781 C 15.15625 -36.050781 11.40625 -38.347656 11.40625 -42.789062 C 11.40625 -47.6875 14.851562 -50.214844 19.058594 -50.214844 C 23.039062 -50.214844 26.40625 -48.148438 26.5625 -43.785156 C 26.5625 -43.554688 26.945312 -43.171875 27.402344 -43.171875 L 36.972656 -43.171875 C 37.507812 -43.171875 37.890625 -43.554688 37.8125 -43.785156 C 37.660156 -54.195312 29.546875 -61.234375 19.058594 -61.234375 C 9.261719 -61.234375 0 -54.269531 0 -42.789062 C 0 -35.671875 3.597656 -30.234375 9.949219 -27.328125 C 14.390625 -25.261719 18.523438 -25.261719 19.058594 -25.261719 C 22.503906 -25.105469 26.714844 -22.351562 26.714844 -17.835938 C 26.714844 -13.777344 23.117188 -11.023438 19.058594 -11.023438 C 19.058594 -11.023438 19.058594 -11.023438 18.984375 -11.023438 L 18.984375 0 C 19.058594 0 19.058594 0 19.058594 0 C 28.859375 0 38.042969 -6.351562 38.042969 -17.835938 C 38.042969 -25.03125 34.523438 -31 28.09375 -33.984375 Z M 28.09375 -33.984375 "/></g></g></g><g fill="#38b6ff" fill-opacity="1"><g transform="translate(70.985429, 122.254723)"><g><path d="M 29.085938 -11.40625 L 11.710938 -11.40625 L 11.710938 -25.183594 L 35.746094 -25.183594 C 36.207031 -25.183594 36.589844 -25.566406 36.589844 -25.871094 L 36.589844 -35.59375 C 36.589844 -35.976562 36.207031 -36.28125 35.746094 -36.28125 L 11.710938 -36.28125 L 11.710938 -50.136719 L 29.085938 -50.136719 L 29.085938 -61.234375 L 0.84375 -61.234375 C 0.382812 -61.234375 0 -60.851562 0 -60.546875 L 0 -0.6875 C 0 -0.382812 0.382812 0 0.84375 0 L 29.085938 0 Z M 29.085938 -11.40625 "/></g></g></g><g fill="#38b6ff" fill-opacity="1"><g transform="translate(109.406115, 122.254723)"><g><path d="M 41.792969 -0.996094 C 37.964844 -9.492188 33.832031 -17.910156 30.003906 -26.5625 C 36.128906 -28.78125 41.257812 -33.679688 41.257812 -43.019531 C 41.257812 -61.082031 24.035156 -61.234375 20.589844 -61.234375 L 0.765625 -61.234375 C 0.382812 -61.234375 0 -60.851562 0 -60.546875 L 0 -50.136719 L 20.589844 -50.136719 C 22.425781 -50.136719 29.621094 -49.753906 29.621094 -43.019531 C 29.621094 -36.28125 23.117188 -35.976562 20.589844 -35.976562 L 0 -35.976562 L 0 -0.6875 C 0 -0.382812 0.382812 0 0.765625 0 L 10.792969 0 C 11.253906 0 11.636719 -0.382812 11.636719 -0.6875 L 11.636719 -24.722656 L 18.21875 -24.722656 L 29.394531 -0.460938 C 29.46875 -0.230469 29.929688 0 30.160156 0 L 41.105469 0 C 41.71875 0 42.023438 -0.460938 41.792969 -0.996094 Z M 41.792969 -0.996094 "/></g></g></g><g fill="#38b6ff" fill-opacity="1"><g transform="translate(153.413864, 122.254723)"><g><path d="M 46.691406 -49.984375 L 46.691406 -60.546875 C 46.691406 -60.851562 46.386719 -61.234375 45.851562 -61.234375 L 35.898438 -61.234375 C 20.667969 -61.234375 0 -56.796875 0 -30.617188 C 0 -3.445312 20.898438 0 35.898438 0 L 45.851562 0 C 46.386719 0 46.691406 -0.382812 46.691406 -0.6875 L 46.691406 -38.195312 L 23.191406 -38.195312 L 23.191406 -26.484375 L 34.980469 -26.484375 L 34.980469 -11.175781 C 21.664062 -10.488281 11.789062 -16.074219 11.789062 -30.617188 C 11.789062 -49.523438 27.554688 -50.289062 34.980469 -49.984375 Z M 46.691406 -49.984375 "/></g></g></g><g fill="#38b6ff" fill-opacity="1"><g transform="translate(202.472943, 122.254723)"><g><path d="M 24.953125 -10.488281 L 18.828125 -10.488281 L 18.828125 -61.234375 L 7.117188 -61.234375 L 7.117188 -10.488281 L 0.84375 -10.488281 C 0.382812 -10.488281 0 -10.179688 0 -9.796875 L 0 -0.6875 C 0 -0.382812 0.382812 0 0.84375 0 L 24.953125 0 C 25.488281 0 25.796875 -0.382812 25.796875 -0.6875 L 25.796875 -9.796875 C 25.796875 -10.179688 25.488281 -10.488281 24.953125 -10.488281 Z M 24.953125 -10.488281 "/></g></g></g><g fill="#38b6ff" fill-opacity="1"><g transform="translate(229.566406, 122.254723)"><g><path d="M 35.210938 -30.464844 C 35.210938 -33.679688 32.683594 -36.28125 29.46875 -36.28125 C 26.253906 -36.28125 23.730469 -33.679688 23.730469 -30.464844 C 23.730469 -27.328125 26.253906 -24.722656 29.46875 -24.722656 C 32.683594 -24.722656 35.210938 -27.328125 35.210938 -30.464844 Z M 58.941406 -30.695312 C 58.941406 -45.925781 49.066406 -61.234375 29.546875 -61.234375 C 9.722656 -61.234375 0 -45.925781 0 -30.695312 C 0 -15.386719 9.722656 0 29.546875 0 C 49.066406 0 58.941406 -15.386719 58.941406 -30.695312 Z M 47.457031 -30.464844 C 47.457031 -20.589844 41.410156 -10.714844 29.546875 -10.714844 C 17.527344 -10.714844 11.558594 -20.589844 11.558594 -30.464844 C 11.558594 -40.492188 17.527344 -50.441406 29.546875 -50.441406 C 41.410156 -50.441406 47.457031 -40.492188 47.457031 -30.464844 Z M 47.457031 -30.464844 "/></g></g></g><g fill="#ff5757" fill-opacity="0.4"><g transform="translate(262.224977, 35.298234)"><g><path d="M 0.234375 0.015625 L 5.109375 -12.5 L 7.546875 -12.390625 L 11.25 0.515625 L 9.609375 0.4375 L 8.671875 -2.921875 L 3.125 -3.171875 L 1.890625 0.09375 Z M 3.65625 -4.53125 L 8.296875 -4.3125 L 6.46875 -10.953125 L 6.0625 -10.96875 Z M 3.65625 -4.53125 "/></g></g></g><g fill="#ff5757" fill-opacity="0.4"><g transform="translate(274.191084, 35.953167)"><g><path d="M 2.796875 1.0625 L 1.734375 -1.265625 L 4.96875 -9.765625 L 7.3125 -10.828125 L 12.6875 -8.78125 L 13.6875 -6.515625 L 12.390625 -5.921875 L 11.59375 -7.703125 L 7.46875 -9.265625 L 6.265625 -8.71875 L 3.40625 -1.203125 L 3.953125 0.015625 L 8.21875 1.640625 L 10.015625 0.8125 L 10.578125 2.109375 L 8.265625 3.140625 Z M 2.796875 1.0625 "/></g></g></g><g fill="#ff5757" fill-opacity="0.4"><g transform="translate(285.056491, 40.090375)"><g><path d="M 2.3125 1.890625 L 2.046875 -0.671875 L 7.8125 -7.703125 L 10.359375 -7.953125 L 15 -4.15625 L 15.265625 -1.59375 L 9.5 5.4375 L 6.953125 5.6875 Z M 3.734375 1.25 L 7.28125 4.171875 L 8.625 4.03125 L 13.703125 -2.1875 L 13.5625 -3.5 L 10.015625 -6.421875 L 8.6875 -6.296875 L 3.609375 -0.078125 Z M 3.734375 1.25 "/></g></g></g><g fill="#ff5757" fill-opacity="0.4"><g transform="translate(294.583026, 48.040273)"><g><path d="M 0.8125 1.28125 L 2.046875 0.515625 L 5.375 5.828125 L 6.671875 6.125 L 8.828125 4.765625 L 9.109375 3.46875 L 6.484375 -0.703125 L 7.0625 -3.171875 L 9.796875 -4.890625 L 12.28125 -4.34375 L 15.875 1.390625 L 14.65625 2.171875 L 11.453125 -2.953125 L 10.125 -3.265625 L 8.375 -2.140625 L 8.0625 -0.828125 L 10.671875 3.328125 L 10.09375 5.796875 L 7 7.734375 L 4.515625 7.1875 Z M 0.8125 1.28125 "/></g></g></g><g fill="#ff5757" fill-opacity="0.4"><g transform="translate(300.733545, 58.252493)"><g><path d="M 1.046875 3.859375 L 11.921875 0.921875 L 10.9375 -2.71875 L 12.34375 -3.09375 L 14.71875 5.703125 L 13.3125 6.078125 L 12.328125 2.453125 L 1.453125 5.390625 Z M 1.046875 3.859375 "/></g></g></g><g fill="#ff5757" fill-opacity="0.4"><g transform="translate(303.436689, 68.060791)"><g><path d="M -0.015625 0.234375 L 12.546875 4.984375 L 12.453125 7.421875 L -0.390625 11.265625 L -0.34375 9.625 L 3.015625 8.640625 L 3.203125 3.078125 L -0.0625 1.890625 Z M 4.5625 3.609375 L 4.40625 8.265625 L 11.03125 6.34375 L 11.03125 5.9375 Z M 4.5625 3.609375 "/></g></g></g><g fill="#004aad" fill-opacity="1"><g transform="translate(262.268775, 34.220554)"><g><path d="M 0.234375 0.015625 L 5.109375 -12.5 L 7.546875 -12.390625 L 11.25 0.515625 L 9.609375 0.4375 L 8.671875 -2.921875 L 3.125 -3.171875 L 1.890625 0.09375 Z M 3.65625 -4.53125 L 8.296875 -4.3125 L 6.46875 -10.953125 L 6.0625 -10.96875 Z M 3.65625 -4.53125 "/></g></g></g><g fill="#004aad" fill-opacity="1"><g transform="translate(274.234912, 34.875485)"><g><path d="M 2.796875 1.0625 L 1.734375 -1.265625 L 4.96875 -9.765625 L 7.3125 -10.828125 L 12.6875 -8.78125 L 13.6875 -6.515625 L 12.390625 -5.921875 L 11.59375 -7.703125 L 7.46875 -9.265625 L 6.265625 -8.71875 L 3.40625 -1.203125 L 3.953125 0.015625 L 8.21875 1.640625 L 10.015625 0.8125 L 10.578125 2.109375 L 8.265625 3.140625 Z M 2.796875 1.0625 "/></g></g></g><g fill="#004aad" fill-opacity="1"><g transform="translate(285.10032, 39.012697)"><g><path d="M 2.3125 1.890625 L 2.046875 -0.671875 L 7.8125 -7.703125 L 10.359375 -7.953125 L 15 -4.15625 L 15.265625 -1.59375 L 9.5 5.4375 L 6.953125 5.6875 Z M 3.734375 1.25 L 7.28125 4.171875 L 8.625 4.03125 L 13.703125 -2.1875 L 13.5625 -3.5 L 10.015625 -6.421875 L 8.6875 -6.296875 L 3.609375 -0.078125 Z M 3.734375 1.25 "/></g></g></g><g fill="#004aad" fill-opacity="1"><g transform="translate(294.626826, 46.962592)"><g><path d="M 0.8125 1.28125 L 2.046875 0.515625 L 5.375 5.828125 L 6.671875 6.125 L 8.828125 4.765625 L 9.109375 3.46875 L 6.484375 -0.703125 L 7.0625 -3.171875 L 9.796875 -4.890625 L 12.28125 -4.34375 L 15.875 1.390625 L 14.65625 2.171875 L 11.453125 -2.953125 L 10.125 -3.265625 L 8.375 -2.140625 L 8.0625 -0.828125 L 10.671875 3.328125 L 10.09375 5.796875 L 7 7.734375 L 4.515625 7.1875 Z M 0.8125 1.28125 "/></g></g></g><g fill="#004aad" fill-opacity="1"><g transform="translate(300.777345, 57.174814)"><g><path d="M 1.046875 3.859375 L 11.921875 0.921875 L 10.9375 -2.71875 L 12.34375 -3.09375 L 14.71875 5.703125 L 13.3125 6.078125 L 12.328125 2.453125 L 1.453125 5.390625 Z M 1.046875 3.859375 "/></g></g></g><g fill="#004aad" fill-opacity="1"><g transform="translate(303.480489, 66.983112)"><g><path d="M -0.015625 0.234375 L 12.546875 4.984375 L 12.453125 7.421875 L -0.390625 11.265625 L -0.34375 9.625 L 3.015625 8.640625 L 3.203125 3.078125 L -0.0625 1.890625 Z M 4.5625 3.609375 L 4.40625 8.265625 L 11.03125 6.34375 L 11.03125 5.9375 Z M 4.5625 3.609375 "/></g></g></g></svg>